<?xml version="1.0" encoding="UTF-8" standalone="no"?>
<!-- Created with Inkscape (http://www.inkscape.org/) -->

<svg
   version="1.1"
   id="svg2"
   xml:space="preserve"
   width="576.67468"
   height="197.53706"
   viewBox="0 0 576.67468 197.53707"
   sodipodi:docname="2019Raffel_T5_fig1.pdf"
   xmlns:inkscape="http://www.inkscape.org/namespaces/inkscape"
   xmlns:sodipodi="http://sodipodi.sourceforge.net/DTD/sodipodi-0.dtd"
   xmlns="http://www.w3.org/2000/svg"
   xmlns:svg="http://www.w3.org/2000/svg"><defs
     id="defs6"><clipPath
       clipPathUnits="userSpaceOnUse"
       id="clipPath16"><path
         d="M 90,553.847 H 522.506 V 702 H 90 Z"
         id="path14" /></clipPath><clipPath
       clipPathUnits="userSpaceOnUse"
       id="clipPath76"><path
         d="M 90,553.847 H 522.506 V 702 H 90 Z"
         id="path74" /></clipPath><clipPath
       clipPathUnits="userSpaceOnUse"
       id="clipPath102"><path
         d="M 90,553.847 H 522.506 V 702 H 90 Z"
         id="path100" /></clipPath><clipPath
       clipPathUnits="userSpaceOnUse"
       id="clipPath132"><path
         d="M 90,553.847 H 522.506 V 702 H 90 Z"
         id="path130" /></clipPath><clipPath
       clipPathUnits="userSpaceOnUse"
       id="clipPath160"><path
         d="M 90,553.847 H 522.506 V 702 H 90 Z"
         id="path158" /></clipPath><clipPath
       clipPathUnits="userSpaceOnUse"
       id="clipPath196"><path
         d="M 90,553.847 H 522.506 V 702 H 90 Z"
         id="path194" /></clipPath><clipPath
       clipPathUnits="userSpaceOnUse"
       id="clipPath296"><path
         d="M 90,553.847 H 522.506 V 702 H 90 Z"
         id="path294" /></clipPath><clipPath
       clipPathUnits="userSpaceOnUse"
       id="clipPath320"><path
         d="M 90,553.847 H 522.506 V 702 H 90 Z"
         id="path318" /></clipPath><clipPath
       clipPathUnits="userSpaceOnUse"
       id="clipPath346"><path
         d="M 90,553.847 H 522.506 V 702 H 90 Z"
         id="path344" /></clipPath><clipPath
       clipPathUnits="userSpaceOnUse"
       id="clipPath370"><path
         d="M 90,553.847 H 522.506 V 702 H 90 Z"
         id="path368" /></clipPath></defs><sodipodi:namedview
     id="namedview4"
     pagecolor="#ffffff"
     bordercolor="#666666"
     borderopacity="1.0"
     inkscape:pageshadow="2"
     inkscape:pageopacity="0.0"
     inkscape:pagecheckerboard="0" /><g
     id="g8"
     inkscape:groupmode="layer"
     inkscape:label="2019Raffel_T5_fig1"
     transform="matrix(1.3333333,0,0,-1.3333333,-120,935.99998)"><g
       id="g10"><g
         id="g12"
         clip-path="url(#clipPath16)"><g
           id="g18"
           transform="translate(522.507,702.0002)"><path
             d="M 0,0 H -432.507 V -148.153 H -0.001 V 0 m -429.095,-2.584 c 0.583,0.483 1.331,0.773 2.146,0.773 h 195.572 c 0.787,0 1.546,-0.275 2.147,-0.773 h 0.767 v -0.903 c 0.296,-0.51 0.456,-1.094 0.456,-1.694 v -5.583 c 0.539,-0.091 1.046,-0.341 1.5,-0.71 0.584,-0.472 1.103,-1.134 1.585,-1.953 0.962,-1.639 1.783,-3.919 2.531,-6.644 1.494,-5.445 2.681,-12.662 3.868,-19.873 0.157,-0.955 0.314,-1.909 0.472,-2.86 l 7.903,-24.006 v 9.434 h 0.676 -0.676 c 0,1.025 0.244,1.992 0.676,2.849 v 2.634 h 2.49 c 0.931,0.538 2.011,0.846 3.164,0.847 h 35.358 c 1.12,0 2.209,-0.297 3.163,-0.847 h 2.491 v -2.637 c 0.44,-0.875 0.676,-1.848 0.676,-2.846 V -68.4 c 0.025,0 0.051,0 0.076,0 l 25.394,15.305 c 0.001,10e-4 0.001,0.002 0.002,0.003 6.458,7.785 12.919,15.569 25.68,15.757 v 6.007 h 0.451 -0.451 c 0,0.626 0.171,1.213 0.468,1.715 v 0.883 h 0.755 c 0.583,0.482 1.331,0.772 2.147,0.772 h 63.919 c 0.787,0 1.545,-0.275 2.147,-0.772 h 0.776 v -0.92 c 0.29,-0.506 0.447,-1.084 0.447,-1.678 v -11.676 c 0,-0.611 -0.163,-1.184 -0.447,-1.678 v -1.236 h -1.23 c -0.498,-0.289 -1.076,-0.455 -1.693,-0.455 h -63.919 c -0.617,0 -1.195,0.166 -1.693,0.455 h -1.209 v 1.2 c -0.297,0.502 -0.468,1.088 -0.468,1.714 v 5.388 l -25.682,-15.479 c -4.818,-5.808 -9.636,-11.616 -17.073,-14.268 l 11.616,1.908 c 0.964,0.3 1.904,0.609 2.848,0.919 5.838,1.92 11.769,3.86 23.332,3.91 v 5.4 h 0.451 -0.451 c 0.001,0.638 0.178,1.234 0.486,1.743 v 1.005 h 0.933 c 0.551,0.391 1.224,0.621 1.951,0.622 h 73.812 c 0.703,0 1.384,-0.22 1.95,-0.622 h 0.961 v -1.051 c 0.298,-0.511 0.459,-1.096 0.459,-1.697 v -11.676 c 0,-0.619 -0.168,-1.2 -0.459,-1.698 v -1.066 h -0.983 c -0.546,-0.381 -1.211,-0.605 -1.928,-0.606 h -73.812 c -0.717,0.001 -1.382,0.225 -1.928,0.606 h -0.956 v 1.021 c -0.308,0.509 -0.485,1.105 -0.486,1.743 v 5.375 c -0.876,-0.005 -1.718,-0.02 -2.53,-0.045 l -17.677,-2.903 c -0.962,-0.3 -1.902,-0.608 -2.844,-0.917 -4.121,-1.356 -8.287,-2.721 -14.448,-3.425 11.94,-1.126 19.207,-4.377 26.39,-7.601 0.679,-0.304 1.357,-0.608 2.038,-0.91 l 31.253,-7.008 c 0.531,-0.01 1.071,-0.016 1.62,-0.018 v 5.284 h 0.45 -0.45 c 0,0.63 0.175,1.218 0.48,1.72 v 1.06 h 1.029 c 0.519,0.339 1.14,0.535 1.806,0.535 h 26.318 c 0.646,0 1.272,-0.188 1.806,-0.535 h 1.046 v -1.089 c 0.301,-0.508 0.463,-1.091 0.463,-1.691 v -11.458 c 0,-0.618 -0.169,-1.197 -0.463,-1.692 v -1.115 h -1.087 c -0.511,-0.322 -1.116,-0.508 -1.765,-0.509 h -26.318 c -0.649,10e-4 -1.254,0.187 -1.765,0.509 h -1.07 v 1.087 c -0.305,0.501 -0.48,1.09 -0.48,1.72 v 5.272 c -17.534,0.066 -26.468,4.06 -35.28,8.015 -0.677,0.304 -1.355,0.607 -2.035,0.909 l -31.258,7.008 c -0.056,0.001 -0.111,0.002 -0.167,0.003 0.318,-0.325 0.609,-0.724 0.885,-1.185 0.749,-1.26 1.383,-3 1.961,-5.075 1.153,-4.146 2.067,-9.632 2.982,-15.112 0.156,-0.938 0.312,-1.876 0.47,-2.808 l 5.676,-16.999 v 6.474 h 0.45 -0.45 c 0,0.921 0.265,1.781 0.723,2.506 v 1.468 h 1.466 c 0.726,0.459 1.587,0.725 2.51,0.725 H -7.394 c 0.895,0 1.764,-0.255 2.509,-0.725 h 2.012 v -2.691 c 0.117,-0.414 0.178,-0.845 0.178,-1.283 v -16.993 c 0,-0.446 -0.062,-0.878 -0.178,-1.287 v -2.995 h -2.583 c -0.591,-0.268 -1.247,-0.417 -1.938,-0.417 h -136.809 c -0.691,0 -1.347,0.149 -1.938,0.417 h -2.038 v 1.776 c -0.458,0.726 -0.723,1.585 -0.723,2.506 v 8.008 c -0.3,0.101 -0.583,0.262 -0.843,0.47 -0.464,0.37 -0.87,0.883 -1.246,1.513 -0.75,1.26 -1.384,3 -1.963,5.075 -1.154,4.147 -2.068,9.632 -2.983,15.112 -0.158,0.948 -0.316,1.895 -0.476,2.836 l -5.718,17.127 v -9.112 c 0,-1.025 -0.244,-1.992 -0.676,-2.848 v -2.976 h -3.171 c -0.762,-0.325 -1.601,-0.505 -2.483,-0.505 h -35.358 c -0.882,0 -1.721,0.18 -2.483,0.505 h -3.171 v 2.976 c -0.432,0.856 -0.676,1.823 -0.676,2.848 v 10.058 l -16.327,-26.187 c -4.229,-13.566 -8.458,-27.132 -16.873,-27.269 v -14.181 c 0,-0.481 -0.044,-0.953 -0.129,-1.41 v -5.848 h -5.06 c -0.778,-0.266 -1.611,-0.41 -2.479,-0.41 H -407.79 c -0.868,0 -1.701,0.144 -2.479,0.41 h -4.417 v 3.901 c -0.495,1.014 -0.772,2.153 -0.772,3.357 v 28.868 h 0.45 -0.45 c 0,1.204 0.277,2.343 0.772,3.357 v 3.393 h 3.255 c 1.083,0.586 2.323,0.918 3.641,0.918 h 156.773 c 1.281,0 2.53,-0.321 3.637,-0.918 h 3.902 v -5.347 c 0.085,-0.46 0.129,-0.929 0.129,-1.403 v -14.481 l 16.873,27.063 c 0.001,0.001 0,0.001 0.001,0.001 3.751,12.033 7.502,24.066 14.175,26.729 l -16.1,-3.073 c -0.825,-0.301 -1.634,-0.609 -2.446,-0.919 -5.307,-2.029 -10.721,-4.085 -21.248,-4.137 v -10.833 c 0,-0.812 -0.159,-1.588 -0.447,-2.297 v -3.239 h -3.082 c -0.783,-0.364 -1.655,-0.568 -2.575,-0.568 h -141.89 c -0.92,0 -1.792,0.204 -2.574,0.568 h -2.934 v 2.902 c -0.382,0.798 -0.596,1.691 -0.596,2.634 v 22.614 h 0.451 -0.451 c 0,0.943 0.214,1.837 0.596,2.634 v 2.853 h 2.83 c 0.809,0.395 1.718,0.617 2.678,0.617 h 141.89 c 0.936,0 1.85,-0.215 2.675,-0.617 h 2.982 v -3.193 c 0.293,-0.722 0.447,-1.5 0.447,-2.294 v -10.88 c 0.739,0.005 1.45,0.019 2.138,0.042 l 16.349,3.12 c 0.823,0.3 1.63,0.608 2.44,0.916 4.07,1.556 8.2,3.128 14.652,3.8 -4.379,0.744 -8.048,2.173 -11.275,4.012 -4.821,2.747 -8.657,6.394 -12.466,10.008 -0.334,0.317 -0.667,0.633 -1.001,0.949 l -28.19,13.38 c -0.176,0.003 -0.352,0.006 -0.53,0.008 v -7.967 c 0,-0.712 -0.158,-1.387 -0.442,-1.992 v -2.263 h -2.253 c -0.609,-0.288 -1.29,-0.449 -2.009,-0.449 h -109.124 c -0.718,0 -1.399,0.161 -2.009,0.449 h -2.192 v 2.137 c -0.321,0.636 -0.502,1.356 -0.502,2.118 v 17.012 h 0.45 -0.45 c 0,0.762 0.181,1.481 0.502,2.118 v 1.964 h 1.862 c 0.689,0.395 1.488,0.622 2.339,0.622 h 109.124 c 0.827,0 1.632,-0.218 2.338,-0.622 h 1.924 v -2.093 c 0.288,-0.617 0.442,-1.295 0.442,-1.989 v -8.144 c 7.47,-0.067 13.147,-1.882 17.875,-4.577 4.822,-2.746 8.658,-6.393 12.467,-10.007 0.333,-0.317 0.667,-0.634 1.001,-0.95 l 26.155,-12.413 c -0.185,0.252 -0.363,0.527 -0.536,0.821 -0.962,1.639 -1.783,3.919 -2.531,6.643 -1.493,5.446 -2.68,12.663 -3.867,19.874 -0.156,0.95 -0.313,1.9 -0.47,2.846 l -8.125,24.679 v -4.292 c 0,-0.618 -0.166,-1.196 -0.456,-1.694 v -1.22 h -1.221 c -0.497,-0.289 -1.076,-0.455 -1.693,-0.455 H -426.95 c -0.616,0 -1.195,0.166 -1.692,0.455 h -1.176 v 1.145 c -0.318,0.514 -0.501,1.12 -0.501,1.769 v 11.676 h 0.45 -0.45 c 0,0.649 0.183,1.255 0.501,1.77 v 0.827 h 0.722"
             style="fill:#ffffff;fill-opacity:1;fill-rule:nonzero;stroke:none"
             id="path20" /></g><g
           id="g22"
           transform="translate(92.6384,696.8193)"><path
             d="m 0,0 c 0,1.612 1.307,2.919 2.919,2.919 h 195.572 c 0.774,0 1.517,-0.307 2.064,-0.855 0.548,-0.547 0.855,-1.29 0.855,-2.064 v -11.676 c 0,-1.612 -1.307,-2.919 -2.919,-2.919 H 2.919 C 1.307,-14.595 0,-13.288 0,-11.676 V 0"
             style="fill:#d9ead3;fill-opacity:1;fill-rule:evenodd;stroke:none"
             id="path24" /></g><g
           id="g26"
           transform="translate(92.6384,696.8193)"><path
             d="m 0,0 h 0.451 c 0.002,1.363 1.105,2.466 2.468,2.469 h 195.572 c 0.655,0 1.283,-0.261 1.746,-0.724 0.462,-0.462 0.723,-1.09 0.723,-1.745 v -11.676 c -0.003,-1.363 -1.106,-2.466 -2.469,-2.468 H 2.919 c -1.363,0.002 -2.466,1.105 -2.468,2.468 L 0.451,0 H 0 -0.451 v -11.676 c 0.001,-1.861 1.509,-3.369 3.37,-3.369 h 195.572 c 1.861,0 3.369,1.508 3.37,3.369 V 0 c 0,0.894 -0.355,1.751 -0.987,2.383 -0.632,0.632 -1.489,0.987 -2.383,0.987 H 2.919 C 1.058,3.369 -0.45,1.861 -0.451,0 H 0"
             style="fill:#000000;fill-opacity:1;fill-rule:nonzero;stroke:none"
             id="path28" /></g><g
           id="g30"
           transform="translate(134.4492,670.663)"><path
             d="m 0,0 c 0,2.349 1.904,4.253 4.253,4.253 h 109.124 c 1.128,0 2.21,-0.448 3.007,-1.246 C 117.182,2.21 117.63,1.128 117.63,0 v -17.012 c 0,-2.349 -1.904,-4.253 -4.253,-4.253 H 4.253 C 1.904,-21.265 0,-19.361 0,-17.012 V 0"
             style="fill:#f4cccc;fill-opacity:1;fill-rule:evenodd;stroke:none"
             id="path32" /></g><g
           id="g34"
           transform="translate(134.4492,670.663)"><path
             d="m 0,0 h 0.451 c 0,1.052 0.425,1.999 1.113,2.689 0.69,0.689 1.638,1.113 2.689,1.114 h 109.124 c 1.008,0 1.975,-0.401 2.689,-1.114 0.713,-0.713 1.113,-1.681 1.113,-2.689 v -17.012 c 0,-1.052 -0.425,-1.999 -1.113,-2.689 -0.69,-0.689 -1.638,-1.114 -2.689,-1.114 H 4.253 c -1.051,0 -1.999,0.425 -2.689,1.114 -0.688,0.69 -1.113,1.637 -1.113,2.689 L 0.451,0 H 0 -0.451 v -17.012 c 0.001,-2.598 2.106,-4.704 4.704,-4.704 h 109.124 c 2.598,0 4.703,2.106 4.704,4.704 V 0 c 0,1.248 -0.496,2.444 -1.378,3.326 -0.882,0.882 -2.079,1.378 -3.326,1.378 H 4.253 C 1.655,4.704 -0.45,2.598 -0.451,0 H 0"
             style="fill:#000000;fill-opacity:1;fill-rule:nonzero;stroke:none"
             id="path36" /></g><g
           id="g38"
           transform="translate(116.7657,636.2632)"><path
             d="m 0,0 c 0,3.122 2.531,5.654 5.654,5.654 h 141.89 c 1.499,0 2.937,-0.596 3.997,-1.656 1.061,-1.06 1.656,-2.499 1.656,-3.998 v -22.614 c 0,-3.122 -2.531,-5.653 -5.653,-5.653 H 5.654 C 2.531,-28.267 0,-25.736 0,-22.614 V 0"
             style="fill:#fff2cc;fill-opacity:1;fill-rule:evenodd;stroke:none"
             id="path40" /></g><g
           id="g42"
           transform="translate(116.7657,636.2632)"><path
             d="m 0,0 h 0.451 c 0,1.438 0.581,2.736 1.523,3.679 0.943,0.942 2.241,1.524 3.68,1.524 h 141.889 c 1.38,0 2.704,-0.548 3.68,-1.524 0.975,-0.976 1.523,-2.299 1.523,-3.679 v -22.614 c 0,-1.438 -0.581,-2.736 -1.523,-3.679 -0.943,-0.942 -2.241,-1.523 -3.679,-1.524 H 5.653 c -1.438,0.001 -2.736,0.582 -3.679,1.524 -0.942,0.943 -1.523,2.241 -1.523,3.679 L 0.451,0 H 0 -0.451 v -22.614 c 0.001,-3.371 2.733,-6.104 6.105,-6.104 h 141.889 c 3.372,0 6.104,2.733 6.105,6.104 V 0 c 0,1.619 -0.643,3.172 -1.788,4.316 -1.145,1.145 -2.698,1.788 -4.316,1.788 H 5.653 C 2.282,6.104 -0.45,3.372 -0.451,0 H 0"
             style="fill:#000000;fill-opacity:1;fill-rule:nonzero;stroke:none"
             id="path44" /></g><g
           id="g46"
           transform="translate(107.4995,593.2991)"><path
             d="m 0,0 c 0,3.986 3.231,7.217 7.217,7.217 h 156.774 c 1.914,0 3.75,-0.76 5.103,-2.114 1.353,-1.353 2.114,-3.189 2.114,-5.103 v -28.868 c 0,-3.986 -3.231,-7.217 -7.217,-7.217 H 7.217 C 3.231,-36.085 0,-32.854 0,-28.868 V 0"
             style="fill:#cfe2f3;fill-opacity:1;fill-rule:evenodd;stroke:none"
             id="path48" /></g><g
           id="g50"
           transform="translate(107.4995,593.2991)"><path
             d="m 0,0 h 0.451 c 0,1.87 0.756,3.559 1.981,4.785 1.226,1.225 2.915,1.981 4.785,1.982 h 156.774 c 1.794,0 3.515,-0.713 4.784,-1.982 1.269,-1.269 1.982,-2.99 1.982,-4.785 v -28.868 c 0,-1.87 -0.756,-3.559 -1.982,-4.784 -1.226,-1.226 -2.914,-1.982 -4.784,-1.982 H 7.217 c -1.87,0 -3.559,0.756 -4.785,1.982 -1.225,1.225 -1.981,2.914 -1.981,4.784 L 0.451,0 H 0 -0.451 v -28.868 c 0.001,-4.235 3.433,-7.667 7.668,-7.668 h 156.774 c 4.235,0.001 7.667,3.433 7.667,7.668 V 0 c 0,2.034 -0.807,3.984 -2.245,5.422 -1.438,1.438 -3.389,2.246 -5.422,2.246 H 7.217 C 2.982,7.668 -0.45,4.235 -0.451,0 H 0"
             style="fill:#000000;fill-opacity:1;fill-rule:nonzero;stroke:none"
             id="path52" /></g><g
           id="g54"
           transform="translate(294.0426,699.4166)"><path
             d="m 0,0 h -0.766 c 0.081,-0.068 0.16,-0.139 0.236,-0.215 0.207,-0.207 0.385,-0.439 0.53,-0.689 V 0 m -200.632,0 h -0.721 v -0.828 c 0.194,0.314 0.438,0.594 0.721,0.828 M 0,-15.968 c -0.294,-0.504 -0.716,-0.926 -1.221,-1.219 H 0 v 1.219 m -201.353,-0.075 v -1.144 h 1.175 c -0.479,0.279 -0.884,0.673 -1.175,1.144"
             style="fill:#ffffff;fill-opacity:1;fill-rule:nonzero;stroke:none"
             id="path56" /></g><g
           id="g58"
           transform="translate(291.1294,699.2878)"><path
             d="m 0,0 h -195.572 c -1.363,-0.003 -2.466,-1.105 -2.468,-2.469 h -0.4 0.4 v -11.675 c 0.002,-1.363 1.105,-2.466 2.468,-2.469 H 0 c 1.363,0.003 2.466,1.106 2.469,2.469 v 11.675 c 0,0.655 -0.261,1.283 -0.723,1.746 C 1.283,-0.26 0.655,0 0,0"
             style="fill:#d5ebd1;fill-opacity:1;fill-rule:nonzero;stroke:none"
             id="path60" /></g><g
           id="g62"
           transform="translate(293.2762,699.4166)"><path
             d="m 0,0 h -199.866 c -0.283,-0.234 -0.527,-0.514 -0.721,-0.828 v -1.769 h 0.4 c 0.002,1.363 1.105,2.466 2.468,2.468 H -2.147 c 0.655,0 1.283,-0.26 1.746,-0.723 0.463,-0.463 0.723,-1.091 0.723,-1.745 v -11.676 c -0.003,-1.363 -1.106,-2.466 -2.469,-2.469 h -195.572 c -1.363,0.003 -2.466,1.106 -2.468,2.469 v 11.676 h -0.4 v -13.446 c 0.292,-0.471 0.696,-0.865 1.176,-1.144 H -0.454 c 0.505,0.293 0.926,0.715 1.22,1.219 v 7.373 0.001 7.69 C 0.621,-0.654 0.444,-0.422 0.236,-0.215 0.16,-0.139 0.082,-0.068 0,0"
             style="fill:#000000;fill-opacity:1;fill-rule:nonzero;stroke:none"
             id="path64" /></g></g></g><text
       transform="matrix(1,0,0,-1,98.179,688.888)"
       style="font-variant:normal;font-weight:normal;font-stretch:normal;font-size:9px;font-family:Arial;-inkscape-font-specification:ArialMT;writing-mode:lr-tb;fill:#000000;fill-opacity:1;fill-rule:nonzero;stroke:none"
       id="text68"><tspan
         x="0 3.1949999 5.697 8.6940002 13.698 18.702 23.202 25.200001 30.204 32.706001 37.709999 40.212002 46.215 51.219002 56.223 58.221001 60.219002 64.719002 69.723 72.224998 74.726997 79.731003 82.233002 89.235001 94.238998 97.236 104.733 109.737 114.741 117.243 119.745 125.244 130.248 135.252 137.754 140.256 142.254 146.754 149.256 154.25999 159.26401 164.26801 169.272 171.774"
         y="0"
         sodipodi:role="line"
         id="tspan66">&quot;translate English to German: That is good.&quot;</tspan></text><g
       id="g70"><g
         id="g72"
         clip-path="url(#clipPath76)"><g
           id="g78"
           transform="translate(252.0884,674.7449)"><path
             d="m 0,0 h -1.925 c 0.359,-0.205 0.692,-0.459 0.989,-0.756 C -0.545,-1.147 -0.23,-1.6 0,-2.092 V 0 m -115.725,0 h -1.862 v -1.964 c 0.415,0.822 1.065,1.506 1.862,1.964 M 0,-23.086 c -0.464,-0.992 -1.264,-1.794 -2.253,-2.262 H 0 v 2.262 m -117.587,-0.126 v -2.136 h 2.192 c -0.947,0.448 -1.721,1.203 -2.192,2.136"
             style="fill:#ffffff;fill-opacity:1;fill-rule:nonzero;stroke:none"
             id="path80" /></g><g
           id="g82"
           transform="translate(247.8261,674.4657)"><path
             d="m 0,0 h -109.124 c -1.051,0 -1.999,-0.425 -2.689,-1.114 -0.688,-0.689 -1.113,-1.637 -1.113,-2.689 h -0.399 0.399 v -17.012 c 0,-1.051 0.425,-1.999 1.113,-2.689 0.69,-0.689 1.638,-1.113 2.689,-1.113 H 0 c 1.051,0 1.999,0.424 2.689,1.113 0.689,0.69 1.113,1.638 1.114,2.689 v 17.012 c 0,1.009 -0.401,1.976 -1.114,2.689 C 1.976,-0.401 1.008,0 0,0"
             style="fill:#fccacb;fill-opacity:1;fill-rule:nonzero;stroke:none"
             id="path84" /></g><g
           id="g86"
           transform="translate(250.1637,674.7449)"><path
             d="m 0,0 h -113.8 c -0.797,-0.458 -1.447,-1.142 -1.862,-1.964 v -2.118 h 0.398 c 0,1.052 0.425,1.999 1.114,2.689 0.69,0.689 1.637,1.113 2.689,1.114 H -2.338 c 1.009,0 1.976,-0.401 2.689,-1.114 0.713,-0.713 1.114,-1.68 1.114,-2.689 v -17.012 c 0,-1.052 -0.425,-1.999 -1.114,-2.689 -0.689,-0.689 -1.637,-1.113 -2.689,-1.114 h -109.123 c -1.052,10e-4 -1.999,0.425 -2.689,1.114 -0.689,0.69 -1.114,1.637 -1.114,2.689 v 17.012 h -0.398 v -19.13 c 0.471,-0.933 1.244,-1.688 2.192,-2.136 H -0.329 c 0.99,0.468 1.79,1.27 2.254,2.262 V -2.092 C 1.695,-1.6 1.38,-1.147 0.988,-0.756 0.691,-0.459 0.358,-0.205 0,0"
             style="fill:#000000;fill-opacity:1;fill-rule:nonzero;stroke:none"
             id="path88" /></g></g></g><text
       transform="matrix(1,0,0,-1,153.668,664.16)"
       style="font-variant:normal;font-weight:normal;font-stretch:normal;font-size:9px;font-family:Arial;-inkscape-font-specification:ArialMT;writing-mode:lr-tb;fill:#000000;fill-opacity:1;fill-rule:nonzero;stroke:none"
       id="text94"><tspan
         x="0 3.1949999 7.6950002 12.699 14.697 19.701 22.202999 26.702999 31.707001 36.710999 39.213001 44.216999 49.221001 53.721001 58.724998 61.227001 63.729 69.227997 74.232002 79.236"
         y="0"
         sodipodi:role="line"
         id="tspan90">&quot;cola sentence: The </tspan><tspan
         x="-7.244 -2.744 2.26 7.2639999 10.261 14.761 19.764999 22.267 24.264999 28.764999 31.267 33.264999 38.269001 45.765999 50.77 52.768002 57.771999 62.776001 65.278 71.776001 76.779999 78.778 80.776001 83.278"
         y="9"
         sodipodi:role="line"
         id="tspan92">course is jumping well.&quot;</tspan></text><g
       id="g96"><g
         id="g98"
         clip-path="url(#clipPath102)"><g
           id="g104"
           transform="translate(279.0285,600.0494)"><path
             d="m 0,0 h -3.901 c 0.65,-0.35 1.253,-0.796 1.784,-1.328 C -1.014,-2.431 -0.281,-3.835 0,-5.347 V 0 m -167.952,0 h -3.255 v -3.393 c 0.703,1.443 1.847,2.632 3.255,3.393 M 0,-37.028 c -0.509,-2.738 -2.473,-4.965 -5.06,-5.848 H 0 v 5.848 m -171.207,-1.947 v -3.901 h 4.417 c -1.939,0.662 -3.529,2.079 -4.417,3.901"
             style="fill:#ffffff;fill-opacity:1;fill-rule:nonzero;stroke:none"
             id="path106" /></g><g
           id="g108"
           transform="translate(271.96,600.0494)"><path
             d="m 0,0 h -157.717 c -1.681,-0.116 -3.19,-0.845 -4.311,-1.966 -1.225,-1.225 -1.982,-2.914 -1.982,-4.784 h -0.129 0.129 v -28.868 c 0,-1.87 0.757,-3.559 1.982,-4.785 1.226,-1.225 2.915,-1.982 4.785,-1.982 H -0.47 c 1.87,0 3.559,0.757 4.785,1.982 1.225,1.226 1.981,2.915 1.982,4.785 V -6.75 c 0,1.794 -0.713,3.516 -1.982,4.784 C 3.157,-0.808 1.623,-0.113 0,0"
             style="fill:#cae3f5;fill-opacity:1;fill-rule:nonzero;stroke:none"
             id="path110" /></g><g
           id="g112"
           transform="translate(275.1274,600.0494)"><path
             d="m 0,0 h -3.167 c 1.622,-0.113 3.157,-0.808 4.314,-1.966 1.269,-1.268 1.982,-2.99 1.982,-4.784 v -28.868 c 0,-1.87 -0.756,-3.559 -1.982,-4.785 -1.226,-1.225 -2.914,-1.982 -4.784,-1.982 h -156.774 c -1.87,0 -3.559,0.757 -4.784,1.982 -1.226,1.226 -1.982,2.915 -1.982,4.785 V -6.75 h -0.129 v -32.225 c 0.888,-1.822 2.478,-3.239 4.417,-3.901 h 161.73 c 2.587,0.883 4.551,3.11 5.06,5.848 V -5.347 C 3.62,-3.835 2.887,-2.431 1.785,-1.328 1.253,-0.796 0.65,-0.35 0,0 m -160.884,0 h -3.167 c -1.408,-0.761 -2.552,-1.95 -3.255,-3.393 V -6.75 h 0.129 c 0,1.87 0.756,3.559 1.982,4.784 1.121,1.121 2.63,1.85 4.311,1.966"
             style="fill:#000000;fill-opacity:1;fill-rule:nonzero;stroke:none"
             id="path114" /></g></g></g><text
       transform="matrix(1,0,0,-1,121.517,590.052)"
       style="font-variant:normal;font-weight:normal;font-stretch:normal;font-size:8px;font-family:Arial;-inkscape-font-specification:ArialMT;writing-mode:lr-tb;fill:#000000;fill-opacity:1;fill-rule:nonzero;stroke:none"
       id="text124"><tspan
         x="0 2.8399999 6.8400002 11.288 17.952 24.615999 29.063999 31.728001 33.504002 37.504002 41.952 44.175999 46.400002 50.400002 52.624001 57.071999 59.296001 63.743999 65.968002 70.416 74.863998 77.087997 81.536003 85.984001 88.648003 90.424004 92.648003 94.424004 98.872002 102.872 105.096 109.544 111.32 115.32 119.768 124.216 126.44 130.44 134.888 139.336 143.784"
         y="0"
         sodipodi:role="line"
         id="tspan116">&quot;summarize: state authorities dispatched </tspan><tspan
         x="1.421 5.869 12.533 16.981001 19.645 24.093 28.541 32.988998 36.988998 40.988998 43.213001 47.213001 49.876999 54.325001 60.101002 64.100998 66.324997 68.549004 72.997002 77.445 81.445 85.892998 90.341003 94.341003 96.565002 98.789001 103.237 105.461 109.461 113.909 116.573 120.573 125.021 129.021 131.245 133.46899 137.91701 142.36501"
         y="9.4980001"
         sodipodi:role="line"
         id="tspan118">emergency crews tuesday to survey the </tspan><tspan
         x="6.744 11.192 15.64 22.304001 26.752001 31.200001 35.647999 37.872002 42.32 44.543999 46.768002 51.216 53.880001 56.104 60.551998 65 67.223999 71.671997 76.120003 80.120003 81.896004 86.344002 90.792 95.239998 99.688004 101.912 104.136 108.584 110.808 113.032 117.032 121.48 125.48 129.92799 132.592 137.03999"
         y="18.996"
         sodipodi:role="line"
         id="tspan120">damage after an onslaught of severe </tspan><tspan
         x="27.576 33.352001 37.799999 42.248001 44.472 48.919998 53.368 56.032001 58.256001 60.032001 64.480003 66.704002 73.367996 75.143997 79.143997 83.143997 84.919998 88.919998 92.919998 94.695999 99.143997 103.592 105.368 113.368"
         y="28.493999"
         sodipodi:role="line"
         id="tspan122">weather in mississippi…&quot;</tspan></text><g
       id="g126"><g
         id="g128"
         clip-path="url(#clipPath132)"><g
           id="g134"
           transform="translate(269.9659,641.7502)"><path
             d="m 0,0 h -2.982 c 0.603,-0.294 1.158,-0.687 1.642,-1.171 0.583,-0.583 1.036,-1.272 1.34,-2.022 L 0,0 m -150.224,0 h -2.831 v -2.853 c 0.594,1.241 1.595,2.249 2.831,2.853 M 0,-30.398 c -0.581,-1.43 -1.689,-2.59 -3.082,-3.239 H 0 v 3.239 m -153.055,-0.337 v -2.902 h 2.934 c -1.283,0.598 -2.323,1.627 -2.934,2.902"
             style="fill:#ffffff;fill-opacity:1;fill-rule:nonzero;stroke:none"
             id="path136" /></g><g
           id="g138"
           transform="translate(264.3091,641.4662)"><path
             d="m 0,0 h -141.89 c -1.438,0 -2.736,-0.582 -3.679,-1.524 -0.942,-0.943 -1.524,-2.241 -1.524,-3.679 h -0.305 0.305 v -22.614 c 0,-1.438 0.582,-2.736 1.524,-3.679 0.943,-0.942 2.241,-1.523 3.679,-1.523 H 0 c 1.438,0 2.736,0.581 3.679,1.523 0.942,0.943 1.524,2.241 1.524,3.679 v 22.614 c 0,1.38 -0.548,2.703 -1.524,3.679 C 2.703,-0.548 1.38,0 0,0"
             style="fill:#fff1c7;fill-opacity:1;fill-rule:nonzero;stroke:none"
             id="path140" /></g><g
           id="g142"
           transform="translate(266.9841,641.7502)"><path
             d="m 0,0 h -147.243 c -1.235,-0.604 -2.236,-1.612 -2.83,-2.853 v -2.634 h 0.305 c 0,1.438 0.582,2.736 1.524,3.679 0.943,0.942 2.241,1.524 3.679,1.524 h 141.89 c 1.38,0 2.703,-0.548 3.679,-1.524 0.976,-0.976 1.524,-2.299 1.524,-3.679 v -22.614 c 0,-1.438 -0.582,-2.736 -1.524,-3.679 -0.943,-0.942 -2.241,-1.523 -3.679,-1.523 h -141.89 c -1.438,0 -2.736,0.581 -3.679,1.523 -0.942,0.943 -1.524,2.241 -1.524,3.679 v 22.614 h -0.305 v -25.248 c 0.611,-1.275 1.651,-2.304 2.934,-2.902 H -0.1 c 1.393,0.649 2.5,1.809 3.082,3.239 V -3.193 C 2.678,-2.443 2.225,-1.754 1.641,-1.171 1.158,-0.687 0.603,-0.294 0,0"
             style="fill:#000000;fill-opacity:1;fill-rule:nonzero;stroke:none"
             id="path144" /></g></g></g><text
       transform="matrix(1,0,0,-1,125.04,631.302)"
       style="font-variant:normal;font-weight:normal;font-stretch:normal;font-size:9px;font-family:Arial;-inkscape-font-specification:ArialMT;writing-mode:lr-tb;fill:#000000;fill-opacity:1;fill-rule:nonzero;stroke:none"
       id="text152"><tspan
         x="0 3.1949999 7.6950002 10.197 14.697 19.701 22.202999 26.702999 31.707001 36.710999 39.213001 44.216999 49.221001 53.721001 58.724998 63.729 66.231003 68.733002 74.232002 79.236 84.239998 86.741997 89.738998 94.742996 96.740997 101.745 106.749 109.251 114.255 117.252 122.256 126.756 131.75999 136.76401"
         y="0"
         sodipodi:role="line"
         id="tspan146">&quot;stsb sentence1: The rhino grazed </tspan><tspan
         x="-0.903 4.1009998 9.1049995 11.607 14.109 19.113001 24.117001 26.618999 31.622999 34.619999 39.624001 44.124001 48.624001 51.125999 53.627998 58.127998 63.132 68.136002 70.638 75.641998 80.646004 85.146004 90.150002 95.153999 97.655998 100.158 106.161 108.663 111.66 116.664 118.662 123.666 128.67 131.172 133.17 137.67"
         y="10.8"
         sodipodi:role="line"
         id="tspan148">on the grass. sentence2: A rhino is </tspan><tspan
         x="32.77 37.773998 40.771 45.775002 50.275002 52.272999 57.277 62.280998 64.782997 66.780998 71.785004 74.287003 79.291 81.792999 84.294998 86.292999 91.296997 93.294998 98.299004 100.801"
         y="21.6"
         sodipodi:role="line"
         id="tspan150">grazing in a field.&quot;</tspan></text><g
       id="g154"><g
         id="g156"
         clip-path="url(#clipPath160)"><g
           id="g162"
           transform="translate(313.0337,644.6243)"><path
             d="m 0,0 c 0,3.122 2.531,5.654 5.653,5.654 h 35.359 c 1.5,0 2.938,-0.596 3.998,-1.656 C 46.07,2.937 46.666,1.499 46.666,0 v -22.614 c 0,-3.122 -2.531,-5.653 -5.654,-5.653 H 5.653 C 2.531,-28.267 0,-25.736 0,-22.614 V 0"
             style="fill:#efefef;fill-opacity:1;fill-rule:evenodd;stroke:none"
             id="path164" /></g><g
           id="g166"
           transform="translate(313.0341,644.6241)"><path
             d="m 0,0 h 0.676 c 0,1.377 0.556,2.617 1.458,3.52 0.903,0.902 2.143,1.457 3.52,1.458 h 35.358 c 1.321,0 2.587,-0.525 3.52,-1.458 C 45.466,2.586 45.99,1.32 45.99,0 v -22.614 c 0,-1.376 -0.556,-2.616 -1.458,-3.519 -0.903,-0.902 -2.143,-1.458 -3.52,-1.458 H 5.654 c -1.377,0 -2.617,0.556 -3.52,1.458 -0.902,0.903 -1.458,2.143 -1.458,3.519 L 0.676,0 H 0 -0.676 v -22.614 c 0.001,-3.496 2.834,-6.329 6.33,-6.329 h 35.358 c 3.496,0 6.329,2.833 6.33,6.329 V 0 c 0,1.679 -0.667,3.289 -1.854,4.476 C 44.301,5.663 42.691,6.33 41.012,6.33 H 5.654 C 2.158,6.329 -0.675,3.496 -0.676,0 H 0"
             style="fill:#000000;fill-opacity:1;fill-rule:nonzero;stroke:none"
             id="path168" /></g><g
           id="g170"
           transform="translate(359.7,650.1074)"><path
             d="m 0,0 h -2.491 c 0.476,-0.275 0.918,-0.612 1.313,-1.007 C -0.696,-1.489 -0.301,-2.04 0,-2.637 V 0 m -44.176,0 h -2.49 v -2.634 c 0.556,1.101 1.425,2.018 2.49,2.634"
             style="fill:#ffffff;fill-opacity:1;fill-rule:nonzero;stroke:none"
             id="path172" /></g><g
           id="g174"
           transform="translate(354.0464,649.6018)"><path
             d="m 0,0 h -35.359 c -1.377,0 -2.617,-0.556 -3.519,-1.458 -0.902,-0.903 -1.458,-2.143 -1.458,-3.52 h -0.676 0.676 v -22.613 c 0,-1.377 0.556,-2.617 1.458,-3.52 0.902,-0.902 2.142,-1.457 3.519,-1.458 H 0 c 1.377,0.001 2.617,0.556 3.52,1.458 0.902,0.903 1.457,2.143 1.458,3.52 v 22.613 c 0,1.321 -0.525,2.587 -1.458,3.52 C 2.586,-0.524 1.32,0 0,0"
             style="fill:#efefef;fill-opacity:1;fill-rule:nonzero;stroke:none"
             id="path176" /></g><g
           id="g178"
           transform="translate(359.7,619.1617)"><path
             d="M 0,0 C -0.671,-1.328 -1.796,-2.388 -3.171,-2.975 H 0 V 0 m -46.666,0 v -2.975 h 3.171 c -1.375,0.587 -2.5,1.647 -3.171,2.975"
             style="fill:#ffffff;fill-opacity:1;fill-rule:nonzero;stroke:none"
             id="path180" /></g><g
           id="g182"
           transform="translate(357.2085,650.1074)"><path
             d="m 0,0 h -41.685 c -1.064,-0.616 -1.933,-1.533 -2.489,-2.634 v -2.849 h 0.675 c 0.001,1.377 0.557,2.617 1.458,3.519 0.903,0.902 2.143,1.458 3.52,1.458 h 35.359 c 1.32,0 2.586,-0.524 3.52,-1.457 0.933,-0.934 1.458,-2.2 1.458,-3.52 v -22.614 c -0.001,-1.376 -0.556,-2.617 -1.458,-3.52 -0.903,-0.901 -2.143,-1.457 -3.52,-1.457 h -35.359 c -1.377,0 -2.617,0.556 -3.52,1.457 -0.901,0.903 -1.457,2.144 -1.458,3.52 v 22.614 h -0.675 v -11.47 0 -13.993 c 0.67,-1.328 1.795,-2.388 3.17,-2.975 h 40.325 c 1.375,0.587 2.5,1.647 3.17,2.975 v 13.986 0 0 14.323 C 2.191,-2.04 1.795,-1.489 1.314,-1.007 0.918,-0.612 0.476,-0.275 0,0"
             style="fill:#000000;fill-opacity:1;fill-rule:nonzero;stroke:none"
             id="path184" /></g></g></g><text
       transform="matrix(1,0,0,-1,319.06,624.885)"
       style="font-variant:normal;font-weight:bold;font-stretch:normal;font-size:28px;font-family:Arial;-inkscape-font-specification:Arial-BoldMT;writing-mode:lr-tb;fill:#000000;fill-opacity:1;fill-rule:nonzero;stroke:none"
       id="text188"><tspan
         x="0 17.108"
         y="0"
         sodipodi:role="line"
         id="tspan186">T5</tspan></text><g
       id="g190"><g
         id="g192"
         clip-path="url(#clipPath196)"><g
           id="g198"
           transform="translate(294.4992,690.3157)"><path
             d="M 0,0 V -0.881 L 8.125,-25.559 C 6.719,-17.089 5.252,-8.953 3.278,-4.191 2.553,-2.429 1.749,-1.142 0.934,-0.491 0.619,-0.239 0.313,-0.078 0,0"
             style="fill:#ffffff;fill-opacity:1;fill-rule:nonzero;stroke:none"
             id="path200" /></g><g
           id="g202"
           transform="translate(294.1927,690.3661)"><path
             d="M 0,0 0.307,-0.931 V -0.05 C 0.205,-0.025 0.103,-0.008 0,0"
             style="fill:#000000;fill-opacity:1;fill-rule:nonzero;stroke:none"
             id="path204" /></g><g
           id="g206"
           transform="translate(294.0423,690.8229)"><path
             d="M 0,0 V -0.001 Z"
             style="fill:#000000;fill-opacity:1;fill-rule:nonzero;stroke:none"
             id="path208" /></g><g
           id="g210"
           transform="translate(304.4547,659.1962)"><path
             d="m 0,0 c 1.405,-8.466 2.871,-16.595 4.844,-21.355 0.725,-1.762 1.529,-3.049 2.343,-3.699 0.242,-0.194 0.478,-0.333 0.716,-0.423 v 1.472 L 0,0"
             style="fill:#ffffff;fill-opacity:1;fill-rule:nonzero;stroke:none"
             id="path212" /></g><g
           id="g214"
           transform="translate(312.3581,635.1907)"><path
             d="M 0,0 V -1.472 C 0.173,-1.537 0.347,-1.576 0.524,-1.59 L 0,0"
             style="fill:#000000;fill-opacity:1;fill-rule:nonzero;stroke:none"
             id="path216" /></g><g
           id="g218"
           transform="translate(294.0426,690.3724)"><path
             d="m 0,0 c 0.476,-0.002 0.924,-0.174 1.391,-0.548 0.815,-0.651 1.618,-1.937 2.344,-3.7 2.194,-5.293 3.762,-14.757 5.316,-24.215 1.188,-7.21 2.374,-14.428 3.867,-19.873 0.749,-2.724 1.569,-5.004 2.531,-6.643 0.482,-0.819 1.001,-1.481 1.585,-1.953 0.581,-0.471 1.245,-0.749 1.956,-0.748 v 0.902 c -0.476,10e-4 -0.924,0.174 -1.391,0.548 -0.814,0.65 -1.617,1.937 -2.343,3.699 -2.194,5.294 -3.761,14.757 -5.316,24.215 -1.187,7.211 -2.374,14.428 -3.867,19.873 -0.749,2.724 -1.57,5.005 -2.532,6.644 -0.482,0.819 -1,1.481 -1.584,1.953 C 1.376,0.625 0.711,0.903 0,0.901 V 0"
             style="fill:#000000;fill-opacity:1;fill-rule:nonzero;stroke:none"
             id="path220" /></g><g
           id="g222"
           transform="translate(253.0599,661.6097)"><path
             d="m 0,0 28.19,-13.38 c -3.477,3.289 -7.002,6.488 -11.291,8.93 C 12.401,-1.891 7.062,-0.148 0,0 m 30.813,-14.624 c 3.478,-3.289 7.002,-6.487 11.29,-8.929 4.234,-2.409 9.213,-4.095 15.673,-4.408 -0.284,0.263 -0.552,0.572 -0.808,0.923 l -26.155,12.414"
             style="fill:#ffffff;fill-opacity:1;fill-rule:nonzero;stroke:none"
             id="path224" /></g><g
           id="g226"
           transform="translate(310.0275,634.572)"><path
             d="m 0,0 c 0.256,-0.351 0.524,-0.661 0.808,-0.923 0.403,-0.02 0.811,-0.034 1.226,-0.043 L 0,0"
             style="fill:#000000;fill-opacity:1;fill-rule:nonzero;stroke:none"
             id="path228" /></g><g
           id="g230"
           transform="translate(252.0887,661.62)"><path
             d="m 0,0 c 7.547,-0.002 13.168,-1.785 17.87,-4.46 4.701,-2.677 8.483,-6.262 12.292,-9.879 3.809,-3.614 7.645,-7.26 12.467,-10.007 4.82,-2.748 10.626,-4.581 18.315,-4.579 v 0.901 c -7.547,0.002 -13.168,1.785 -17.869,4.461 -4.701,2.676 -8.483,6.261 -12.292,9.878 -3.809,3.614 -7.645,7.261 -12.467,10.008 C 13.495,-0.93 7.689,0.903 0,0.901 V 0"
             style="fill:#000000;fill-opacity:1;fill-rule:nonzero;stroke:none"
             id="path232" /></g><g
           id="g234"
           transform="translate(310.3099,632.6514)"><path
             d="m 0,0 c -7.45,-0.263 -12.036,-1.593 -16.203,-3.113 l 16.1,3.073 C -0.069,-0.027 -0.035,-0.013 0,0 m -21.41,-4.107 -16.348,-3.12 c 7.534,0.253 12.154,1.59 16.348,3.12"
             style="fill:#ffffff;fill-opacity:1;fill-rule:nonzero;stroke:none"
             id="path236" /></g><g
           id="g238"
           transform="translate(269.9663,624.481)"><path
             d="M 0,0 C 10.82,-0.005 16.313,2.081 21.695,4.139 27.078,6.19 32.351,8.213 43.061,8.218 V 9.119 C 32.244,9.124 26.755,7.038 21.373,4.981 15.99,2.929 10.713,0.906 0,0.901 V 0"
             style="fill:#000000;fill-opacity:1;fill-rule:nonzero;stroke:none"
             id="path240" /></g><g
           id="g242"
           transform="translate(411.9786,670.6724)"><path
             d="m 0,0 c 0,1.612 1.307,2.919 2.919,2.919 h 63.92 c 0.774,0 1.516,-0.307 2.064,-0.855 C 69.45,1.517 69.758,0.774 69.758,0 v -11.676 c 0,-1.612 -1.307,-2.919 -2.919,-2.919 H 2.919 C 1.307,-14.595 0,-13.288 0,-11.676 V 0"
             style="fill:#d9ead3;fill-opacity:1;fill-rule:evenodd;stroke:none"
             id="path244" /></g><g
           id="g246"
           transform="translate(411.9786,670.6724)"><path
             d="m 0,0 h 0.451 c 0.002,1.363 1.105,2.466 2.468,2.469 h 63.92 c 0.654,0 1.282,-0.261 1.745,-0.724 C 69.047,1.283 69.307,0.655 69.307,0 v -11.676 c -0.003,-1.363 -1.105,-2.466 -2.468,-2.468 H 2.919 c -1.363,0.002 -2.466,1.105 -2.468,2.468 L 0.451,0 H 0 -0.451 v -11.676 c 0,-1.861 1.509,-3.369 3.37,-3.369 h 63.92 c 1.861,0 3.369,1.508 3.369,3.369 V 0 c 0,0.894 -0.355,1.751 -0.987,2.383 C 68.589,3.015 67.732,3.37 66.839,3.37 H 2.919 C 1.058,3.369 -0.451,1.861 -0.451,0 H 0"
             style="fill:#000000;fill-opacity:1;fill-rule:nonzero;stroke:none"
             id="path248" /></g><g
           id="g250"
           transform="translate(407.02,646.7742)"><path
             d="m 0,0 c 0,1.612 1.307,2.919 2.919,2.919 h 73.812 c 0.774,0 1.517,-0.308 2.064,-0.855 C 79.342,1.517 79.65,0.774 79.65,0 v -11.676 c 0,-1.612 -1.307,-2.919 -2.919,-2.919 H 2.919 C 1.307,-14.595 0,-13.288 0,-11.676 V 0"
             style="fill:#f4cccc;fill-opacity:1;fill-rule:evenodd;stroke:none"
             id="path252" /></g><g
           id="g254"
           transform="translate(407.02,646.7742)"><path
             d="m 0,0 h 0.451 c 0.002,1.363 1.105,2.466 2.468,2.468 h 73.812 c 0.655,0 1.282,-0.26 1.745,-0.723 C 78.939,1.283 79.2,0.655 79.2,0 v -11.676 c -0.003,-1.363 -1.106,-2.466 -2.469,-2.468 H 2.919 c -1.363,0.002 -2.466,1.105 -2.468,2.468 L 0.451,0 H 0 -0.451 v -11.676 c 0.001,-1.861 1.509,-3.369 3.37,-3.37 h 73.812 c 1.861,10e-4 3.369,1.509 3.37,3.37 V 0 c 0,0.894 -0.355,1.751 -0.987,2.383 C 78.482,3.015 77.625,3.37 76.731,3.37 H 2.919 C 1.058,3.369 -0.45,1.861 -0.451,0 H 0"
             style="fill:#000000;fill-opacity:1;fill-rule:nonzero;stroke:none"
             id="path256" /></g><g
           id="g258"
           transform="translate(430.8213,622.9302)"><path
             d="m 0,0 c 0,1.582 1.283,2.865 2.865,2.865 h 26.318 c 0.759,0 1.488,-0.302 2.025,-0.839 C 31.746,1.488 32.047,0.76 32.047,0 v -11.458 c 0,-1.582 -1.282,-2.865 -2.864,-2.865 H 2.865 C 1.283,-14.323 0,-13.04 0,-11.458 V 0"
             style="fill:#fff2cc;fill-opacity:1;fill-rule:evenodd;stroke:none"
             id="path260" /></g><g
           id="g262"
           transform="translate(430.8213,622.9302)"><path
             d="m 0,0 h 0.451 c 0.002,1.333 1.081,2.412 2.414,2.414 h 26.318 c 0.64,0 1.254,-0.254 1.707,-0.707 C 31.342,1.254 31.597,0.64 31.597,0 v -11.458 c -0.003,-1.333 -1.081,-2.412 -2.414,-2.414 H 2.865 c -1.333,0.002 -2.412,1.081 -2.414,2.414 L 0.451,0 H 0 -0.451 v -11.458 c 0.001,-1.831 1.485,-3.315 3.316,-3.316 h 26.318 c 1.831,10e-4 3.315,1.485 3.315,3.316 V 0 c 0,0.879 -0.349,1.722 -0.971,2.344 -0.622,0.622 -1.465,0.971 -2.344,0.971 H 2.865 C 1.034,3.315 -0.45,1.831 -0.451,0 H 0"
             style="fill:#000000;fill-opacity:1;fill-rule:nonzero;stroke:none"
             id="path264" /></g><g
           id="g266"
           transform="translate(374.0554,597.9745)"><path
             d="m 0,0 c 0,2.346 1.902,4.248 4.249,4.248 h 136.808 c 1.127,0 2.208,-0.447 3.005,-1.244 0.796,-0.797 1.244,-1.877 1.244,-3.004 v -16.993 c 0,-2.347 -1.902,-4.249 -4.249,-4.249 H 4.249 C 1.902,-21.242 0,-19.34 0,-16.993 V 0"
             style="fill:#cfe2f3;fill-opacity:1;fill-rule:evenodd;stroke:none"
             id="path268" /></g><g
           id="g270"
           transform="translate(374.0554,597.9745)"><path
             d="m 0,0 h 0.451 c 0,1.05 0.424,1.997 1.112,2.686 0.689,0.687 1.635,1.112 2.686,1.112 h 136.808 c 1.008,0 1.974,-0.4 2.686,-1.113 0.712,-0.712 1.112,-1.678 1.112,-2.685 v -16.993 c 0,-1.051 -0.424,-1.997 -1.112,-2.686 -0.689,-0.688 -1.635,-1.112 -2.686,-1.112 H 4.249 c -1.051,0 -1.997,0.424 -2.686,1.112 -0.688,0.689 -1.112,1.635 -1.112,2.686 L 0.451,0 H 0 -0.451 v -16.993 c 0.001,-2.596 2.104,-4.699 4.7,-4.7 h 136.808 c 2.596,0.001 4.699,2.104 4.7,4.7 V 0 c 0,1.246 -0.495,2.442 -1.377,3.323 -0.881,0.881 -2.076,1.376 -3.323,1.376 H 4.249 C 1.653,4.699 -0.45,2.595 -0.451,0 H 0"
             style="fill:#000000;fill-opacity:1;fill-rule:nonzero;stroke:none"
             id="path272" /></g><g
           id="g274"
           transform="translate(481.7396,673.2698)"><path
             d="M 0,0 H -0.776 C -0.694,-0.068 -0.615,-0.139 -0.54,-0.215 -0.328,-0.427 -0.147,-0.664 0,-0.92 V 0 m -68.989,0 h -0.754 v -0.883 c 0.199,0.336 0.455,0.635 0.754,0.883 M 0,-15.952 c -0.295,-0.512 -0.72,-0.939 -1.23,-1.236 H 0 v 1.236 m -69.743,-0.036 v -1.2 h 1.209 c -0.499,0.29 -0.916,0.704 -1.209,1.2"
             style="fill:#ffffff;fill-opacity:1;fill-rule:nonzero;stroke:none"
             id="path276" /></g><g
           id="g278"
           transform="translate(478.8172,673.1409)"><path
             d="m 0,0 h -63.92 c -1.363,-0.003 -2.466,-1.105 -2.468,-2.469 h -0.433 0.433 v -11.675 c 0.002,-1.363 1.105,-2.466 2.468,-2.469 H 0 c 1.363,0.003 2.466,1.106 2.468,2.469 v 11.675 c 0,0.655 -0.26,1.283 -0.723,1.746 C 1.282,-0.26 0.654,0 0,0"
             style="fill:#d5ebd1;fill-opacity:1;fill-rule:nonzero;stroke:none"
             id="path280" /></g><g
           id="g282"
           transform="translate(480.9639,673.2698)"><path
             d="m 0,0 h -68.213 c -0.3,-0.248 -0.556,-0.547 -0.755,-0.883 v -1.714 h 0.433 c 0.003,1.363 1.106,2.466 2.469,2.468 h 63.919 c 0.655,0 1.283,-0.26 1.746,-0.723 0.463,-0.463 0.723,-1.091 0.723,-1.745 v -11.676 c -0.003,-1.363 -1.106,-2.466 -2.469,-2.469 h -63.919 c -1.363,0.003 -2.466,1.106 -2.469,2.469 v 11.676 h -0.433 v -6.004 h 0.005 l -0.005,-0.002 v -7.385 c 0.294,-0.496 0.711,-0.91 1.209,-1.2 h 67.305 c 0.51,0.297 0.935,0.724 1.23,1.236 V -0.92 C 0.629,-0.664 0.448,-0.427 0.236,-0.215 0.16,-0.139 0.082,-0.068 0,0"
             style="fill:#000000;fill-opacity:1;fill-rule:nonzero;stroke:none"
             id="path284" /></g></g></g><text
       transform="matrix(1,0,0,-1,416.581,662.742)"
       style="font-variant:normal;font-weight:normal;font-stretch:normal;font-size:9px;font-family:Arial;-inkscape-font-specification:ArialMT;writing-mode:lr-tb;fill:#000000;fill-opacity:1;fill-rule:nonzero;stroke:none"
       id="text288"><tspan
         x="0 3.1949999 9.6929998 14.697 19.197001 21.698999 23.697001 28.197001 30.698999 33.201 38.205002 43.209 45.710999 48.213001"
         y="0"
         sodipodi:role="line"
         id="tspan286">&quot;Das ist gut.&quot;</tspan></text><g
       id="g290"><g
         id="g292"
         clip-path="url(#clipPath296)"><g
           id="g298"
           transform="translate(486.6619,649.5219)"><path
             d="m 0,0 h -0.96 c 0.153,-0.109 0.297,-0.231 0.432,-0.365 C -0.322,-0.572 -0.145,-0.802 0,-1.05 V 0 m -78.674,0 h -0.933 v -1.005 c 0.239,0.396 0.558,0.738 0.933,1.005 M 0,-16.122 c -0.247,-0.422 -0.583,-0.786 -0.983,-1.065 H 0 v 1.065 m -79.607,-0.044 v -1.021 h 0.956 c -0.385,0.269 -0.712,0.617 -0.956,1.021"
             style="fill:#ffffff;fill-opacity:1;fill-rule:nonzero;stroke:none"
             id="path300" /></g><g
           id="g302"
           transform="translate(483.751,649.2425)"><path
             d="m 0,0 h -73.812 c -1.363,-0.002 -2.466,-1.105 -2.469,-2.468 h -0.415 0.415 v -11.676 c 0.003,-1.363 1.106,-2.466 2.469,-2.469 H 0 c 1.363,0.003 2.466,1.106 2.469,2.469 v 11.676 c 0,0.654 -0.261,1.282 -0.724,1.745 C 1.282,-0.26 0.654,0 0,0"
             style="fill:#fccacb;fill-opacity:1;fill-rule:nonzero;stroke:none"
             id="path304" /></g><g
           id="g306"
           transform="translate(485.7014,649.5219)"><path
             d="m 0,0 h -77.713 c -0.376,-0.267 -0.694,-0.609 -0.934,-1.005 v -1.743 h 0.416 c 0.003,1.363 1.105,2.466 2.469,2.469 H -1.95 c 0.654,0 1.282,-0.26 1.745,-0.723 0.463,-0.463 0.723,-1.091 0.723,-1.746 v -11.676 c -0.002,-1.363 -1.105,-2.466 -2.468,-2.468 h -73.812 c -1.364,0.002 -2.466,1.105 -2.469,2.468 v 11.676 h -0.416 v -5.399 c 0.002,0 0.005,0 0.007,0 v -0.901 h -0.007 v -7.118 c 0.244,-0.404 0.571,-0.752 0.957,-1.021 h 77.668 c 0.399,0.279 0.736,0.643 0.982,1.065 V -1.05 C 0.816,-0.802 0.639,-0.572 0.432,-0.365 0.298,-0.231 0.153,-0.109 0,0"
             style="fill:#000000;fill-opacity:1;fill-rule:nonzero;stroke:none"
             id="path308" /></g></g></g><text
       transform="matrix(1,0,0,-1,412.246,638.736)"
       style="font-variant:normal;font-weight:normal;font-stretch:normal;font-size:9px;font-family:Arial;-inkscape-font-specification:ArialMT;writing-mode:lr-tb;fill:#000000;fill-opacity:1;fill-rule:nonzero;stroke:none"
       id="text312"><tspan
         x="0 3.1949999 8.1990004 13.203 15.705 18.207001 23.211 27.711 32.210999 37.215 42.219002 44.721001 49.724998 54.729 56.727001 61.730999"
         y="0"
         sodipodi:role="line"
         id="tspan310">&quot;not acceptable&quot;</tspan></text><g
       id="g314"><g
         id="g316"
         clip-path="url(#clipPath320)"><g
           id="g322"
           transform="translate(519.6335,601.9479)"><path
             d="m 0,0 h -2.012 c 0.292,-0.185 0.566,-0.402 0.814,-0.651 0.572,-0.572 0.981,-1.276 1.198,-2.04 V 0 m -143.839,0 h -1.467 v -1.468 c 0.374,0.592 0.876,1.094 1.467,1.468 M 0,-22.253 c -0.38,-1.337 -1.336,-2.431 -2.583,-2.996 H 0 v 2.996 m -145.306,-1.219 v -1.777 h 2.038 c -0.841,0.381 -1.549,1.003 -2.038,1.777"
             style="fill:#ffffff;fill-opacity:1;fill-rule:nonzero;stroke:none"
             id="path324" /></g><g
           id="g326"
           transform="translate(515.1129,601.7724)"><path
             d="m 0,0 h -136.809 c -1.05,0 -1.997,-0.424 -2.686,-1.112 -0.688,-0.689 -1.112,-1.636 -1.112,-2.686 h -0.178 0.178 v -16.993 c 0,-1.05 0.424,-1.997 1.112,-2.686 0.689,-0.688 1.636,-1.112 2.686,-1.112 H 0 c 1.05,0 1.997,0.424 2.685,1.112 0.688,0.689 1.113,1.636 1.113,2.686 v 16.993 c 0,1.007 -0.4,1.973 -1.112,2.686 C 1.973,-0.4 1.007,0 0,0"
             style="fill:#cae3f5;fill-opacity:1;fill-rule:nonzero;stroke:none"
             id="path328" /></g><g
           id="g330"
           transform="translate(517.6215,601.9479)"><path
             d="m 0,0 h -141.827 c -0.591,-0.374 -1.093,-0.876 -1.467,-1.468 v -2.505 h 0.179 c 0,1.05 0.424,1.996 1.112,2.685 0.689,0.688 1.635,1.112 2.685,1.112 H -2.509 c 1.008,0 1.974,-0.4 2.686,-1.112 C 0.889,-2 1.289,-2.966 1.289,-3.973 v -16.994 c 0,-1.05 -0.424,-1.997 -1.112,-2.685 -0.689,-0.688 -1.635,-1.112 -2.686,-1.113 h -136.809 c -1.05,0.001 -1.996,0.425 -2.685,1.113 -0.688,0.688 -1.112,1.635 -1.112,2.685 v 16.994 h -0.179 v -8.205 h 0.005 v -0.901 h -0.005 v -10.393 c 0.489,-0.774 1.197,-1.396 2.038,-1.777 H -0.571 c 1.247,0.565 2.203,1.659 2.583,2.996 V -2.691 C 1.795,-1.927 1.386,-1.223 0.814,-0.651 0.566,-0.402 0.292,-0.185 0,0"
             style="fill:#000000;fill-opacity:1;fill-rule:nonzero;stroke:none"
             id="path332" /></g></g></g><text
       transform="matrix(1,0,0,-1,386.086,591.413)"
       style="font-variant:normal;font-weight:normal;font-stretch:normal;font-size:9px;font-family:Arial;-inkscape-font-specification:ArialMT;writing-mode:lr-tb;fill:#000000;fill-opacity:1;fill-rule:nonzero;stroke:none"
       id="text338"><tspan
         x="0 3.1949999 7.6950002 9.6929998 14.193 16.695 21.698999 26.702999 31.707001 36.710999 38.709 43.713001 46.215 51.219002 56.223 60.723 65.726997 67.724998 70.226997 75.231003 77.228996 79.226997 83.726997 88.731003 93.735001 96.237 101.241 103.743 106.245 111.249 114.246 116.748 121.752"
         y="0"
         sodipodi:role="line"
         id="tspan334">&quot;six people hospitalized after a </tspan><tspan
         x="15.267 19.767 22.268999 27.273001 30.27 37.766998 40.269001 42.266998 47.271 49.772999 54.777 57.278999 59.780998 64.785004 66.782997 71.787003 74.289001 78.789001 83.792999 88.796997 93.801003 96.303001 100.803 103.305"
         y="10.8"
         sodipodi:role="line"
         id="tspan336">storm in attala county.&quot;</tspan></text><g
       id="g340"><g
         id="g342"
         clip-path="url(#clipPath346)"><g
           id="g348"
           transform="translate(462.8557,625.7104)"><path
             d="m 0,0 h -1.046 c 0.193,-0.125 0.374,-0.271 0.538,-0.436 C -0.31,-0.633 -0.14,-0.853 0,-1.09 V 0 m -30.976,0 h -1.029 v -1.061 c 0.259,0.426 0.612,0.789 1.029,1.061 M 0,-15.93 c -0.269,-0.452 -0.642,-0.835 -1.087,-1.115 H 0 v 1.115 m -32.005,-0.028 v -1.087 h 1.07 c -0.435,0.274 -0.802,0.647 -1.07,1.087"
             style="fill:#ffffff;fill-opacity:1;fill-rule:nonzero;stroke:none"
             id="path350" /></g><g
           id="g352"
           transform="translate(460.004,625.3442)"><path
             d="m 0,0 h -26.318 c -1.333,-0.002 -2.412,-1.081 -2.414,-2.414 h -0.421 0.421 v -11.458 c 0.002,-1.333 1.081,-2.412 2.414,-2.414 H 0 c 1.333,0.002 2.412,1.081 2.414,2.414 v 11.458 c 0,0.64 -0.254,1.254 -0.707,1.707 C 1.254,-0.254 0.64,0 0,0"
             style="fill:#fff1c7;fill-opacity:1;fill-rule:nonzero;stroke:none"
             id="path354" /></g><g
           id="g356"
           transform="translate(461.8099,625.7104)"><path
             d="m 0,0 h -29.93 c -0.418,-0.272 -0.77,-0.635 -1.029,-1.061 V -2.78 h 0.421 c 0.002,1.333 1.081,2.411 2.414,2.414 h 26.318 c 0.64,0 1.254,-0.255 1.707,-0.707 0.453,-0.453 0.707,-1.067 0.707,-1.707 v -11.459 c -0.002,-1.332 -1.081,-2.411 -2.414,-2.413 h -26.318 c -1.333,0.002 -2.412,1.081 -2.414,2.413 V -2.78 h -0.421 v -13.178 c 0.268,-0.44 0.635,-0.813 1.07,-1.087 h 29.848 c 0.445,0.28 0.818,0.663 1.087,1.115 V -1.09 C 0.906,-0.853 0.736,-0.633 0.538,-0.436 0.373,-0.271 0.193,-0.125 0,0"
             style="fill:#000000;fill-opacity:1;fill-rule:nonzero;stroke:none"
             id="path358" /></g></g></g><text
       transform="matrix(1,0,0,-1,436.038,614.996)"
       style="font-variant:normal;font-weight:normal;font-stretch:normal;font-size:9px;font-family:Arial;-inkscape-font-specification:ArialMT;writing-mode:lr-tb;fill:#000000;fill-opacity:1;fill-rule:nonzero;stroke:none"
       id="text362"><tspan
         x="0 3.1949999 8.1990004 10.701 15.705"
         y="0"
         sodipodi:role="line"
         id="tspan360">&quot;3.8&quot;</tspan></text><g
       id="g364"><g
         id="g366"
         clip-path="url(#clipPath370)"><g
           id="g372"
           transform="translate(404.0389,640.4285)"><path
             d="M 0,0 C -8.101,-0.249 -13.135,-1.485 -17.677,-2.903 L 0,0"
             style="fill:#ffffff;fill-opacity:1;fill-rule:nonzero;stroke:none"
             id="path374" /></g><g
           id="g376"
           transform="translate(380.3894,636.5448)"><path
             d="m 0,0 -11.616,-1.908 c -0.93,-0.331 -1.9,-0.613 -2.916,-0.84 C -8.215,-2.314 -3.924,-1.225 0,0"
             style="fill:#ffffff;fill-opacity:1;fill-rule:nonzero;stroke:none"
             id="path378" /></g><g
           id="g380"
           transform="translate(359.7,632.6963)"><path
             d="m 0,0 c 11.884,-0.004 17.898,1.965 23.818,3.911 5.92,1.943 11.747,3.863 23.543,3.867 V 8.679 C 35.474,8.683 29.457,6.714 23.537,4.768 17.616,2.826 11.793,0.905 0,0.901 V 0"
             style="fill:#000000;fill-opacity:1;fill-rule:nonzero;stroke:none"
             id="path382" /></g><g
           id="g384"
           transform="translate(360.376,632.5217)"><path
             d="M 0,0 V -1.399 L 5.718,-18.527 C 4.67,-12.336 3.565,-6.459 2.106,-2.988 1.551,-1.657 0.936,-0.693 0.333,-0.22 0.22,-0.13 0.109,-0.058 0,0"
             style="fill:#ffffff;fill-opacity:1;fill-rule:nonzero;stroke:none"
             id="path386" /></g><g
           id="g388"
           transform="translate(359.8535,632.6874)"><path
             d="m 0,0 0.523,-1.565 v 1.399 C 0.348,-0.073 0.176,-0.02 0,0"
             style="fill:#000000;fill-opacity:1;fill-rule:nonzero;stroke:none"
             id="path390" /></g><g
           id="g392"
           transform="translate(367.9292,608.4994)"><path
             d="m 0,0 c 1.05,-6.201 2.157,-12.09 3.62,-15.566 0.555,-1.331 1.17,-2.295 1.774,-2.769 0.095,-0.075 0.189,-0.139 0.282,-0.191 v 1.527 L 0,0"
             style="fill:#ffffff;fill-opacity:1;fill-rule:nonzero;stroke:none"
             id="path394" /></g><g
           id="g396"
           transform="translate(373.6048,591.5001)"><path
             d="m 0,0 v -1.527 c 0.193,-0.11 0.381,-0.172 0.575,-0.194 L 0,0"
             style="fill:#000000;fill-opacity:1;fill-rule:nonzero;stroke:none"
             id="path398" /></g><g
           id="g400"
           transform="translate(359.7,632.6963)"><path
             d="m 0,0 c 0.342,-0.001 0.663,-0.121 1.009,-0.394 0.603,-0.474 1.218,-1.438 1.773,-2.769 1.681,-3.998 2.891,-11.189 4.088,-18.374 0.915,-5.48 1.829,-10.966 2.983,-15.113 0.579,-2.074 1.213,-3.814 1.963,-5.074 0.376,-0.63 0.782,-1.143 1.246,-1.513 0.462,-0.37 0.998,-0.592 1.571,-0.59 v 0.901 c -0.342,0.001 -0.664,0.121 -1.01,0.394 -0.604,0.474 -1.219,1.438 -1.774,2.769 -1.683,3.998 -2.894,11.189 -4.09,18.374 C 6.844,-15.909 5.93,-10.424 4.777,-6.277 4.199,-4.202 3.565,-2.462 2.816,-1.202 2.439,-0.572 2.034,-0.059 1.57,0.311 1.109,0.68 0.572,0.903 0,0.901 V 0"
             style="fill:#000000;fill-opacity:1;fill-rule:nonzero;stroke:none"
             id="path402" /></g><g
           id="g404"
           transform="translate(312.3581,632.6956)"><path
             d="m 0,0 c -0.659,-0.006 -1.298,-0.019 -1.916,-0.04 l -0.235,-0.045 c -6.673,-2.662 -10.424,-14.695 -14.175,-26.728 -0.001,-0.001 -0.001,-0.001 -0.001,-0.001 L 0,-0.627 V 0"
             style="fill:#ffffff;fill-opacity:1;fill-rule:nonzero;stroke:none"
             id="path406" /></g><g
           id="g408"
           transform="translate(313.0341,633.1539)"><path
             d="M 0,0 H -0.001 V -0.004 L 0.001,0 H 0 m -0.463,-0.457 c -0.071,0 -0.142,-0.001 -0.213,-0.001 v -0.628 l 0.391,0.628 c -0.059,0 -0.119,0.001 -0.178,0.001"
             style="fill:#000000;fill-opacity:1;fill-rule:nonzero;stroke:none"
             id="path410" /></g><g
           id="g412"
           transform="translate(313.0349,633.1539)"><path
             d="M 0,0 H -0.001 V -0.001 Z"
             style="fill:#000000;fill-opacity:1;fill-rule:nonzero;stroke:none"
             id="path414" /></g><g
           id="g416"
           transform="translate(313.0326,633.1539)"><path
             d="M 0,0 H -0.005 V -0.012 L 0,-0.004 V 0 m -0.282,-0.456 c -0.06,0 -0.12,0 -0.179,-0.001 0.059,0 0.118,-0.001 0.178,-0.001 l 0.001,0.002"
             style="fill:#000000;fill-opacity:1;fill-rule:nonzero;stroke:none"
             id="path418" /></g><g
           id="g420"
           transform="translate(310.4419,632.6559)"><path
             d="m 0,0 c -0.044,-0.001 -0.088,-0.003 -0.132,-0.005 -0.035,-0.013 -0.069,-0.026 -0.103,-0.04 L 0,0"
             style="fill:#ffffff;fill-opacity:1;fill-rule:nonzero;stroke:none"
             id="path422" /></g><g
           id="g424"
           transform="translate(313.0273,633.1539)"><path
             d="m 0,0 c -0.958,-0.001 -1.862,-0.175 -2.717,-0.503 0.044,0.002 0.087,0.003 0.132,0.005 0.618,0.021 1.257,0.034 1.916,0.04 0.071,0 0.142,0.001 0.213,0.001 0.059,0.001 0.12,0.001 0.179,0.001 L 0,-0.012 V 0"
             style="fill:#000000;fill-opacity:1;fill-rule:nonzero;stroke:none"
             id="path426" /></g><g
           id="g428"
           transform="translate(296.0312,605.8812)"><path
             d="m 0,0 -16.873,-27.064 v -0.205 C -8.458,-27.132 -4.229,-13.566 0,0"
             style="fill:#ffffff;fill-opacity:1;fill-rule:nonzero;stroke:none"
             id="path430" /></g><g
           id="g432"
           transform="translate(279.1579,578.8177)"><path
             d="m 0,0 -0.129,-0.207 c 0.043,0 0.086,0.001 0.129,0.001 V 0"
             style="fill:#000000;fill-opacity:1;fill-rule:nonzero;stroke:none"
             id="path434" /></g><g
           id="g436"
           transform="translate(279.029,578.611)"><path
             d="m 0,0 c 8.501,0 12.752,13.636 17.003,27.271 4.25,13.636 8.501,27.272 17.003,27.272"
             style="fill:none;stroke:#000000;stroke-width:0.901;stroke-linecap:butt;stroke-linejoin:round;stroke-miterlimit:8;stroke-dasharray:none;stroke-opacity:1"
             id="path438" /></g><g
           id="g440"
           transform="translate(361.7978,632.6766)"><path
             d="M 0,0 31.258,-7.009 C 23.368,-3.513 15.036,-0.28 0,0 m 35.701,-8.005 c 7.888,-3.495 16.22,-6.727 31.252,-7.007 l -31.252,7.007"
             style="fill:#ffffff;fill-opacity:1;fill-rule:nonzero;stroke:none"
             id="path442" /></g><g
           id="g444"
           transform="translate(359.7,632.6963)"><path
             d="m 0,0 c 17.724,-0.006 26.495,-3.952 35.391,-7.937 8.891,-3.991 17.907,-8.022 35.757,-8.016 v 0.902 C 53.426,-15.045 44.656,-11.1 35.76,-7.115 26.869,-3.123 17.852,0.907 0,0.901 V 0"
             style="fill:#000000;fill-opacity:1;fill-rule:nonzero;stroke:none"
             id="path446" /></g><g
           id="g448"
           transform="translate(411.5279,664.6656)"><path
             d="m 0,0 c -12.761,-0.188 -19.222,-7.973 -25.68,-15.758 -0.001,-0.001 -0.001,-0.001 -0.002,-0.002 L 0,-0.281 V 0"
             style="fill:#ffffff;fill-opacity:1;fill-rule:nonzero;stroke:none"
             id="path450" /></g><g
           id="g452"
           transform="translate(411.9962,664.6691)"><path
             d="M 0,0 C -0.157,0 -0.313,-0.001 -0.468,-0.003 V -0.285 L 0,-0.003 V 0"
             style="fill:#000000;fill-opacity:1;fill-rule:nonzero;stroke:none"
             id="path454" /></g><g
           id="g456"
           transform="translate(412.0005,664.6691)"><path
             d="M 0,0 H -0.004 V -0.003 Z"
             style="fill:#000000;fill-opacity:1;fill-rule:nonzero;stroke:none"
             id="path458" /></g><g
           id="g460"
           transform="translate(385.846,648.9055)"><path
             d="m 0,0 -25.394,-15.305 c 0.782,0.006 1.537,0.02 2.267,0.042 l 6.054,0.995 C -9.636,-11.616 -4.819,-5.808 0,0"
             style="fill:#ffffff;fill-opacity:1;fill-rule:nonzero;stroke:none"
             id="path462" /></g><g
           id="g464"
           transform="translate(368.7731,634.6372)"><path
             d="m 0,0 -6.055,-0.994 c 1.101,0.034 2.146,0.086 3.14,0.154 C -1.899,-0.614 -0.929,-0.331 0,0"
             style="fill:#ffffff;fill-opacity:1;fill-rule:nonzero;stroke:none"
             id="path466" /></g><g
           id="g468"
           transform="translate(365.8578,633.797)"><path
             d="m 0,0 c -0.994,-0.068 -2.038,-0.12 -3.139,-0.154 -0.73,-0.022 -1.485,-0.037 -2.266,-0.043 L -5.414,-0.202 C -4.072,-0.21 -2.778,-0.241 -1.533,-0.293 -1.011,-0.21 -0.5,-0.111 0,0"
             style="fill:#000000;fill-opacity:1;fill-rule:nonzero;stroke:none"
             id="path470" /></g><g
           id="g472"
           transform="translate(360.444,633.5954)"><path
             d="m 0,0 -0.744,-0.448 c 1.64,0 3.178,0.124 4.625,0.356 C 2.636,-0.039 1.342,-0.008 0,0"
             style="fill:#000000;fill-opacity:1;fill-rule:nonzero;stroke:none"
             id="path474" /></g><g
           id="g476"
           transform="translate(359.7,633.147)"><path
             d="M 0,0 C 13.074,0 19.611,7.881 26.148,15.761 32.686,23.642 39.224,31.522 52.3,31.522"
             style="fill:none;stroke:#000000;stroke-width:0.901;stroke-linecap:butt;stroke-linejoin:round;stroke-miterlimit:8;stroke-dasharray:none;stroke-opacity:1"
             id="path478" /></g></g></g></g></svg>
